<?xml version="1.0" encoding="UTF-8" standalone="no"?>
<!DOCTYPE svg PUBLIC "-//W3C//DTD SVG 1.1//EN" "http://www.w3.org/Graphics/SVG/1.1/DTD/svg11.dtd">
<svg width="100%" height="100%" viewBox="0 0 24 24" version="1.1" xmlns="http://www.w3.org/2000/svg" xmlns:xlink="http://www.w3.org/1999/xlink" xml:space="preserve" xmlns:serif="http://www.serif.com/" style="fill-rule:evenodd;clip-rule:evenodd;stroke-linecap:round;stroke-linejoin:round;">
    <path d="M15,2L11,2C9.903,2 9,2.903 9,4L9,15C9,16.097 9.903,17 11,17L19,17C20.097,17 21,16.097 21,15L21,8" style="fill:none;fill-rule:nonzero;stroke:white;stroke-width:2px;"/>
    <path d="M16.706,2.706C16.254,2.253 15.64,1.998 15,2L15,7C15,7.549 15.451,8 16,8L21,8C21.002,7.36 20.747,6.746 20.294,6.294L16.706,2.706Z" style="fill:none;fill-rule:nonzero;stroke:white;stroke-width:2px;"/>
    <path d="M5,7C3.903,7 3,7.903 3,9L3,20C3,21.097 3.903,22 5,22L13,22C13.714,22 14.375,21.618 14.732,21" style="fill:none;fill-rule:nonzero;stroke:white;stroke-width:2px;"/>
</svg>
