<?xml version="1.0" encoding="UTF-8" standalone="no"?>
<!DOCTYPE svg PUBLIC "-//W3C//DTD SVG 1.1//EN" "http://www.w3.org/Graphics/SVG/1.1/DTD/svg11.dtd">
<svg width="100%" height="100%" viewBox="0 0 24 24" version="1.1" xmlns="http://www.w3.org/2000/svg" xmlns:xlink="http://www.w3.org/1999/xlink" xml:space="preserve" xmlns:serif="http://www.serif.com/" style="fill-rule:evenodd;clip-rule:evenodd;stroke-linecap:round;stroke-linejoin:round;">
    <path d="M14.536,21.686C14.612,21.875 14.796,22 15,22C15.213,22 15.404,21.864 15.473,21.662L21.973,2.662C21.993,2.608 22.002,2.551 22.002,2.494C22.002,2.221 21.779,1.998 21.506,1.998C21.449,1.998 21.392,2.007 21.338,2.027L2.338,8.527C2.136,8.596 2,8.787 2,9C2,9.204 2.125,9.388 2.314,9.464L10.244,12.644C10.75,12.847 11.152,13.248 11.356,13.754L14.536,21.686Z" style="fill:none;fill-rule:nonzero;stroke:white;stroke-width:2px;"/>
    <path d="M21.854,2.147L10.914,13.086" style="fill:none;fill-rule:nonzero;stroke:white;stroke-width:2px;"/>
</svg>
