<?xml version="1.0" encoding="UTF-8" standalone="no"?>
<!DOCTYPE svg PUBLIC "-//W3C//DTD SVG 1.1//EN" "http://www.w3.org/Graphics/SVG/1.1/DTD/svg11.dtd">
<svg width="100%" height="100%" viewBox="0 0 24 24" version="1.1" xmlns="http://www.w3.org/2000/svg" xmlns:xlink="http://www.w3.org/1999/xlink" xml:space="preserve" xmlns:serif="http://www.serif.com/" style="fill-rule:evenodd;clip-rule:evenodd;stroke-linecap:round;stroke-linejoin:round;">
    <path d="M4,13L4,4C4,2.903 4.903,2 6,2L14,2C14.64,1.998 15.254,2.253 15.706,2.706L19.294,6.294C19.747,6.746 20.002,7.36 20,8L20,13" style="fill:none;fill-rule:nonzero;stroke:white;stroke-width:2px;"/>
    <path d="M14,2L14,7C14,7.549 14.451,8 15,8L20,8" style="fill:none;fill-rule:nonzero;stroke:white;stroke-width:2px;"/>
    <path d="M10,22L10,17" style="fill:none;fill-rule:nonzero;stroke:white;stroke-width:2px;"/>
    <path d="M14,19L14,17" style="fill:none;fill-rule:nonzero;stroke:white;stroke-width:2px;"/>
    <path d="M18,20L18,17" style="fill:none;fill-rule:nonzero;stroke:white;stroke-width:2px;"/>
    <path d="M2,13L22,13" style="fill:none;fill-rule:nonzero;stroke:white;stroke-width:2px;"/>
    <path d="M6,20L6,17" style="fill:none;fill-rule:nonzero;stroke:white;stroke-width:2px;"/>
</svg>
